<svg xmlns="http://www.w3.org/2000/svg" viewBox="0 0 1023 1023" id="codechef"><path d="M306.639 311.45C276.337 314.799 248.858 298.623 233.013 273.483C229.096 267.268 227.206 262.46 225.868 255.308C225.191 251.69 220.142 252.401 217.656 250.549C208.751 243.918 199.605 214.454 198.413 203.362C192.171 145.292 230.979 84.8112 291.63 78.8771C377.913 73.6244 429.562 184.562 378.603 251.34C374.872 256.23 374.014 259.84 367.84 255.799L367.472 255.553C368.323 265.717 363.495 271.405 357.506 279.227C345.246 295.241 327.059 308.748 306.639 311.45ZM294.499 94.8161C255 97.698 228.293 127.093 217.703 163.263C214.654 173.677 214.138 185.179 214.749 195.976L214.89 196.325C215.504 191.621 217.961 187.054 218.664 182.372C220.05 173.152 214.344 175.54 221.354 162.206C243.797 119.521 264.163 143.597 252.083 156.471C246.381 158.307 244.605 150.958 239.036 161.707C236.227 167.128 237.089 171.904 238.719 177.516C240.654 184.179 238.503 188.859 236.524 195.339L231.353 213.742C228.394 225.136 228.25 230.553 232.081 242.227C233.44 246.366 247.343 266.411 250.464 270.52C277.428 306.013 321.551 303.716 345.62 267.746C350.291 260.766 352.391 253.284 360.334 249.337L360.398 248.761C360.908 244.742 362.666 240.648 364.12 236.888C368.474 225.122 367.682 228.809 366.89 217.622L366.248 206.523C364.816 192.452 361.351 177.395 355.453 164.551C350.138 152.978 347.221 151.251 335.559 157.936L318.302 168.684C306.297 175.611 268.18 189.817 253.701 185.997C243.57 183.324 249.578 173.101 254.623 168.406L255.017 168.499C272.172 172.396 300.507 161.214 314.517 152.279C325.448 145.307 338.562 135.843 352.384 138.648C366.706 141.556 374.502 168.815 377.111 180.596C378.107 185.09 378.753 190.032 380.596 194.219L381.474 197.407L381.57 183.947C381.52 174.63 379.53 165.381 376.583 156.54C365.17 122.293 332.761 91.2704 294.499 94.8161Z" transform="scale(1.6)" fill="#ffffff" class="color000000 svgShape"></path><path d="M465.397 526.617C431.747 535.327 394.979 525.921 369.252 502.691C365.626 499.417 362.662 495.44 359.587 492.765C354.361 492.768 347.773 492.289 342.695 493.819C340.723 494.413 338.672 496.726 336.753 497.69C317.706 507.257 272.481 503.718 250.131 498.145C244.549 496.754 239.73 494.706 233.92 493.915L143.001 485.837C129.99 484.838 119.283 484.341 117.785 467.619C113.732 422.38 135.914 380.726 163.943 346.906C180.198 327.292 204.828 303.921 231.724 301.376C246.374 300.824 251.779 307.047 261.578 317.127L278.436 334.09C283.237 338.774 287.793 343.581 293.725 346.853C298.674 344.107 303.091 339.283 307.267 335.495L327.89 316.948C340.134 306.187 346.062 299.124 363.889 302.23C377.398 304.584 402.992 313.961 411.396 326.146C411.692 326.575 414.304 325.822 414.979 325.68C469.854 314.16 523.931 343.757 539.547 398.435C552.905 445.205 530.614 496.96 486.962 518.624C480.02 522.069 472.83 524.495 465.397 526.617ZM235.073 316.3L235.012 331.166C235.054 348.973 241.719 374.752 257.477 384.543C264.345 388.811 269.927 380.849 273.828 375.783L283.923 359.38C276.314 353.946 269.41 347.973 262.712 341.443L249.515 327.868C244.945 323.16 241.1 319.095 235.073 316.3ZM354.021 317.174C349.275 319.814 345.196 323.627 341.175 327.08L318.548 346.901C313.379 351.359 308.372 355.947 302.439 359.385L307.973 373.792C309.612 377.848 311.392 382.155 314.432 385.384C314.959 386.08 315.347 386.279 315.277 387.188L315.058 387.375C313.794 388.472 313.099 389.587 312.29 391.043C313.096 390.636 313.668 390.291 314.375 389.756L315.886 389.127C316.329 385.845 318.742 388.23 322.5 387.447C347.554 382.227 355.109 340.434 356.162 317.656L354.021 317.174ZM372.338 321.173C371.107 332.085 369.131 342.672 366.108 353.233L377.965 342.571C381.313 340.054 392.667 333.895 394.15 332.024C387.271 327.453 380.075 324.024 372.338 321.173ZM218.391 322.031C198.814 331.871 184.897 345.953 171.821 362.581C144.479 397.352 132.513 424.66 132.876 468.942L197.576 474.129L246.923 479.943C255.053 480.852 257.664 473.819 260.876 467.004C267.399 453.163 271.5 436.748 272.553 421.463L272.32 399.568C252.719 409.604 235.272 388.106 227.963 372.375C220.755 356.86 218.876 339.005 218.659 322.09L218.391 322.031ZM434.538 338.882C391.378 340.938 357.34 373.102 352.998 416.717C348.046 466.452 381.678 508.436 431.188 513.497C436.211 514.01 441.451 513.83 446.497 513.742C469.906 511.337 492.36 500.758 507.401 482.28C555.658 423 510.556 334.404 434.538 338.882ZM291.556 379.844C289.191 380.717 289.618 382.878 289.561 384.954L288.733 415.6C287.263 441.344 281.102 462.463 268.737 485.005L278.279 486.742C282.843 487.554 287.694 487.27 292.311 487.254C297.937 487.217 309.727 487.155 314.894 484.534C300.265 457.615 293.697 440.786 293.693 408.528L293.697 389.417C293.696 385.657 295.395 379.2 291.556 379.844ZM310.148 396.406C304.938 416.816 315.658 454.042 325.869 471.118L331.214 479.333C336.967 478.473 342.371 476.33 348.281 475.665L347.25 473.847C333.97 450.917 333.888 422.865 337.899 397.465C330.526 401.334 316.879 407.029 310.464 398.594L310.148 396.406Z" transform="scale(1.6)" fill="#ffffff" class="color000000 svgShape"></path><path d="M423.642 460.332C419.024 460.398 417.793 459.718 414.559 456.672L397.958 443.459C381.649 431.473 380.581 420.901 397.741 407.441L409.604 398.102C413.313 394.98 415.883 391.141 420.733 389.768 422.873 389.672 424.757 390.012 426.544 391.27 434.887 397.142 427.836 404.083 422.401 408.418L411.532 417.091C408.056 419.79 404.647 421.814 401.981 425.416 405.823 430.656 419.347 438.896 425.128 444.348 431.008 449.893 433.244 457.991 423.642 460.332zM456.882 460.795L455.547 460.9C450.616 461.068 447.19 457.525 447.471 452.656 447.982 443.797 469.859 431.436 476.504 425.53 469.75 418.254 449.702 407.218 447.671 399.251 446.374 394.163 450.149 390.742 454.853 389.774 461.749 390.139 464.206 394.96 469.155 398.964 475.135 403.801 482.245 407.964 487.621 413.436 503.857 429.964 480.458 442.186 469.885 450.606 465.528 454.076 462.256 458.879 456.882 460.795z" transform="scale(1.6)" fill="#ffffff" class="color000000 svgShape"></path></svg>